<svg width="167" height="30" viewBox="0 0 167 30" fill="none" xmlns="http://www.w3.org/2000/svg">
<path fill-rule="evenodd" clip-rule="evenodd" d="M7 21H23C23.55 21 24 20.55 24 20C24 19.45 23.55 19 23 19H7C6.45 19 6 19.45 6 20C6 20.55 6.45 21 7 21ZM7 16H23C23.55 16 24 15.55 24 15C24 14.45 23.55 14 23 14H7C6.45 14 6 14.45 6 15C6 15.55 6.45 16 7 16ZM6 10C6 10.55 6.45 11 7 11H23C23.55 11 24 10.55 24 10C24 9.45 23.55 9 23 9H7C6.45 9 6 9.45 6 10Z" fill="#C3CAD9"/>
<path d="M69.5117 17.2832H72.4316C72.373 18.2402 72.1094 19.0898 71.6406 19.832C71.1784 20.5742 70.5306 21.1536 69.6973 21.5703C68.8704 21.987 67.8743 22.1953 66.709 22.1953C65.7975 22.1953 64.9805 22.0391 64.2578 21.7266C63.5352 21.4076 62.9167 20.9518 62.4023 20.3594C61.8945 19.7669 61.5072 19.0508 61.2402 18.2109C60.9733 17.3711 60.8398 16.4303 60.8398 15.3887V14.4023C60.8398 13.3607 60.9766 12.4199 61.25 11.5801C61.5299 10.7337 61.9271 10.0143 62.4414 9.42188C62.9622 8.82943 63.584 8.3737 64.3066 8.05469C65.0293 7.73568 65.8366 7.57617 66.7285 7.57617C67.9134 7.57617 68.9128 7.79102 69.7266 8.2207C70.5469 8.65039 71.1816 9.24284 71.6309 9.99805C72.0866 10.7533 72.36 11.6126 72.4512 12.5762H69.5215C69.4889 12.0033 69.375 11.5182 69.1797 11.1211C68.9844 10.7174 68.6882 10.4147 68.291 10.2129C67.9004 10.0046 67.3796 9.90039 66.7285 9.90039C66.2402 9.90039 65.8138 9.99154 65.4492 10.1738C65.0846 10.3561 64.7786 10.6328 64.5312 11.0039C64.2839 11.375 64.0983 11.8438 63.9746 12.4102C63.8574 12.9701 63.7988 13.6276 63.7988 14.3828V15.3887C63.7988 16.1243 63.8542 16.7721 63.9648 17.332C64.0755 17.8854 64.2448 18.3542 64.4727 18.7383C64.707 19.1159 65.0065 19.4023 65.3711 19.5977C65.7422 19.7865 66.1882 19.8809 66.709 19.8809C67.321 19.8809 67.8255 19.7832 68.2227 19.5879C68.6198 19.3926 68.9225 19.1029 69.1309 18.7188C69.3457 18.3346 69.4727 17.8561 69.5117 17.2832ZM73.7305 16.8242V16.6191C73.7305 15.8444 73.8411 15.1315 74.0625 14.4805C74.2839 13.8229 74.6061 13.2533 75.0293 12.7715C75.4525 12.2897 75.9733 11.9154 76.5918 11.6484C77.2103 11.375 77.9199 11.2383 78.7207 11.2383C79.5215 11.2383 80.2344 11.375 80.8594 11.6484C81.4844 11.9154 82.0085 12.2897 82.4316 12.7715C82.8613 13.2533 83.1868 13.8229 83.4082 14.4805C83.6296 15.1315 83.7402 15.8444 83.7402 16.6191V16.8242C83.7402 17.5924 83.6296 18.3053 83.4082 18.9629C83.1868 19.6139 82.8613 20.1836 82.4316 20.6719C82.0085 21.1536 81.4876 21.528 80.8691 21.7949C80.2507 22.0618 79.541 22.1953 78.7402 22.1953C77.9395 22.1953 77.2266 22.0618 76.6016 21.7949C75.9831 21.528 75.459 21.1536 75.0293 20.6719C74.6061 20.1836 74.2839 19.6139 74.0625 18.9629C73.8411 18.3053 73.7305 17.5924 73.7305 16.8242ZM76.543 16.6191V16.8242C76.543 17.2669 76.582 17.6803 76.6602 18.0645C76.7383 18.4486 76.862 18.7871 77.0312 19.0801C77.207 19.3665 77.4349 19.5911 77.7148 19.7539C77.9948 19.9167 78.3366 19.998 78.7402 19.998C79.1309 19.998 79.4661 19.9167 79.7461 19.7539C80.026 19.5911 80.2507 19.3665 80.4199 19.0801C80.5892 18.7871 80.7129 18.4486 80.791 18.0645C80.8757 17.6803 80.918 17.2669 80.918 16.8242V16.6191C80.918 16.1895 80.8757 15.7858 80.791 15.4082C80.7129 15.0241 80.5859 14.6855 80.4102 14.3926C80.2409 14.0931 80.0163 13.8587 79.7363 13.6895C79.4564 13.5202 79.1178 13.4355 78.7207 13.4355C78.3236 13.4355 77.985 13.5202 77.7051 13.6895C77.4316 13.8587 77.207 14.0931 77.0312 14.3926C76.862 14.6855 76.7383 15.0241 76.6602 15.4082C76.582 15.7858 76.543 16.1895 76.543 16.6191ZM88.2227 13.6895V22H85.4102V11.4336H88.0469L88.2227 13.6895ZM87.8125 16.3457H87.0508C87.0508 15.5645 87.1517 14.8613 87.3535 14.2363C87.5553 13.6048 87.8385 13.0677 88.2031 12.625C88.5677 12.1758 89.0007 11.834 89.502 11.5996C90.0098 11.3587 90.5762 11.2383 91.2012 11.2383C91.696 11.2383 92.1484 11.3099 92.5586 11.4531C92.9688 11.5964 93.3203 11.8242 93.6133 12.1367C93.9128 12.4492 94.1406 12.8626 94.2969 13.377C94.4596 13.8913 94.541 14.5195 94.541 15.2617V22H91.709V15.252C91.709 14.7832 91.6439 14.4186 91.5137 14.1582C91.3835 13.8978 91.1914 13.7155 90.9375 13.6113C90.6901 13.5007 90.3841 13.4453 90.0195 13.4453C89.6419 13.4453 89.3132 13.5202 89.0332 13.6699C88.7598 13.8197 88.5319 14.028 88.3496 14.2949C88.1738 14.5553 88.0404 14.8613 87.9492 15.2129C87.8581 15.5645 87.8125 15.9421 87.8125 16.3457ZM102.393 19.0801C102.393 18.8783 102.334 18.696 102.217 18.5332C102.1 18.3704 101.882 18.2207 101.562 18.084C101.25 17.9408 100.798 17.8105 100.205 17.6934C99.6712 17.5762 99.1732 17.4297 98.7109 17.2539C98.2552 17.0716 97.8581 16.8535 97.5195 16.5996C97.1875 16.3457 96.9271 16.0462 96.7383 15.7012C96.5495 15.3496 96.4551 14.9492 96.4551 14.5C96.4551 14.0573 96.5495 13.6406 96.7383 13.25C96.9336 12.8594 97.2103 12.5143 97.5684 12.2148C97.9329 11.9089 98.3757 11.6712 98.8965 11.502C99.4238 11.3262 100.016 11.2383 100.674 11.2383C101.592 11.2383 102.38 11.3848 103.037 11.6777C103.701 11.9707 104.209 12.3743 104.561 12.8887C104.919 13.3965 105.098 13.9759 105.098 14.627H102.285C102.285 14.3535 102.227 14.1094 102.109 13.8945C101.999 13.6732 101.823 13.5007 101.582 13.377C101.348 13.2467 101.042 13.1816 100.664 13.1816C100.352 13.1816 100.081 13.237 99.8535 13.3477C99.6257 13.4518 99.4499 13.5951 99.3262 13.7773C99.209 13.9531 99.1504 14.1484 99.1504 14.3633C99.1504 14.526 99.1829 14.6725 99.248 14.8027C99.3197 14.9264 99.4336 15.0404 99.5898 15.1445C99.7461 15.2487 99.9479 15.3464 100.195 15.4375C100.449 15.5221 100.762 15.6003 101.133 15.6719C101.895 15.8281 102.575 16.0332 103.174 16.2871C103.773 16.5345 104.248 16.873 104.6 17.3027C104.951 17.7259 105.127 18.2826 105.127 18.9727C105.127 19.4414 105.023 19.8711 104.814 20.2617C104.606 20.6523 104.307 20.9941 103.916 21.2871C103.525 21.5736 103.057 21.7982 102.51 21.9609C101.969 22.1172 101.361 22.1953 100.684 22.1953C99.7005 22.1953 98.8672 22.0195 98.1836 21.668C97.5065 21.3164 96.9922 20.8704 96.6406 20.3301C96.2956 19.7832 96.123 19.2233 96.123 18.6504H98.7891C98.8021 19.0345 98.8997 19.3438 99.082 19.5781C99.2708 19.8125 99.5085 19.9818 99.7949 20.0859C100.088 20.1901 100.404 20.2422 100.742 20.2422C101.107 20.2422 101.41 20.1934 101.65 20.0957C101.891 19.9915 102.074 19.8548 102.197 19.6855C102.327 19.5098 102.393 19.3079 102.393 19.0801ZM112.129 11.4336V13.4258H105.977V11.4336H112.129ZM107.5 8.82617H110.312V18.8164C110.312 19.1224 110.352 19.3568 110.43 19.5195C110.514 19.6823 110.638 19.7962 110.801 19.8613C110.964 19.9199 111.169 19.9492 111.416 19.9492C111.592 19.9492 111.748 19.9427 111.885 19.9297C112.028 19.9102 112.148 19.8906 112.246 19.8711L112.256 21.9414C112.015 22.0195 111.755 22.0814 111.475 22.127C111.195 22.1725 110.885 22.1953 110.547 22.1953C109.928 22.1953 109.388 22.0944 108.926 21.8926C108.47 21.6842 108.118 21.3522 107.871 20.8965C107.624 20.4408 107.5 19.8418 107.5 19.0996V8.82617ZM116.543 13.7383V22H113.73V11.4336H116.377L116.543 13.7383ZM119.727 11.3652L119.678 13.9727C119.541 13.9531 119.375 13.9368 119.18 13.9238C118.991 13.9043 118.818 13.8945 118.662 13.8945C118.265 13.8945 117.92 13.9466 117.627 14.0508C117.34 14.1484 117.1 14.2949 116.904 14.4902C116.715 14.6855 116.572 14.9232 116.475 15.2031C116.383 15.4831 116.331 15.8021 116.318 16.1602L115.752 15.9844C115.752 15.3008 115.82 14.6725 115.957 14.0996C116.094 13.5202 116.292 13.0156 116.553 12.5859C116.82 12.1562 117.145 11.8242 117.529 11.5898C117.913 11.3555 118.353 11.2383 118.848 11.2383C119.004 11.2383 119.163 11.2513 119.326 11.2773C119.489 11.2969 119.622 11.3262 119.727 11.3652ZM127.305 19.4707V11.4336H130.117V22H127.471L127.305 19.4707ZM127.617 17.3027L128.447 17.2832C128.447 17.9863 128.366 18.6406 128.203 19.2461C128.04 19.8451 127.796 20.3659 127.471 20.8086C127.145 21.2448 126.735 21.5866 126.24 21.834C125.745 22.0749 125.163 22.1953 124.492 22.1953C123.978 22.1953 123.503 22.1237 123.066 21.9805C122.637 21.8307 122.266 21.5996 121.953 21.2871C121.647 20.9681 121.406 20.5612 121.23 20.0664C121.061 19.5651 120.977 18.9629 120.977 18.2598V11.4336H123.789V18.2793C123.789 18.5918 123.825 18.8555 123.896 19.0703C123.975 19.2852 124.082 19.4609 124.219 19.5977C124.355 19.7344 124.515 19.832 124.697 19.8906C124.886 19.9492 125.094 19.9785 125.322 19.9785C125.902 19.9785 126.357 19.8613 126.689 19.627C127.028 19.3926 127.266 19.0736 127.402 18.6699C127.546 18.2598 127.617 17.804 127.617 17.3027ZM136.631 19.998C136.976 19.998 137.282 19.9329 137.549 19.8027C137.816 19.666 138.024 19.4772 138.174 19.2363C138.33 18.9889 138.411 18.6992 138.418 18.3672H141.064C141.058 19.1094 140.859 19.7702 140.469 20.3496C140.078 20.9225 139.554 21.375 138.896 21.707C138.239 22.0326 137.503 22.1953 136.689 22.1953C135.869 22.1953 135.153 22.0586 134.541 21.7852C133.936 21.5117 133.431 21.1341 133.027 20.6523C132.624 20.1641 132.321 19.5977 132.119 18.9531C131.917 18.3021 131.816 17.6055 131.816 16.8633V16.5801C131.816 15.8314 131.917 15.1348 132.119 14.4902C132.321 13.8392 132.624 13.2728 133.027 12.791C133.431 12.3027 133.936 11.9219 134.541 11.6484C135.146 11.375 135.856 11.2383 136.67 11.2383C137.536 11.2383 138.294 11.4043 138.945 11.7363C139.603 12.0684 140.117 12.5436 140.488 13.1621C140.866 13.7741 141.058 14.5 141.064 15.3398H138.418C138.411 14.9883 138.337 14.6693 138.193 14.3828C138.057 14.0964 137.855 13.8685 137.588 13.6992C137.327 13.5234 137.005 13.4355 136.621 13.4355C136.211 13.4355 135.876 13.5234 135.615 13.6992C135.355 13.8685 135.153 14.1029 135.01 14.4023C134.867 14.6953 134.766 15.0306 134.707 15.4082C134.655 15.7793 134.629 16.1699 134.629 16.5801V16.8633C134.629 17.2734 134.655 17.6673 134.707 18.0449C134.759 18.4225 134.857 18.7578 135 19.0508C135.15 19.3438 135.355 19.5749 135.615 19.7441C135.876 19.9134 136.214 19.998 136.631 19.998ZM147.871 11.4336V13.4258H141.719V11.4336H147.871ZM143.242 8.82617H146.055V18.8164C146.055 19.1224 146.094 19.3568 146.172 19.5195C146.257 19.6823 146.38 19.7962 146.543 19.8613C146.706 19.9199 146.911 19.9492 147.158 19.9492C147.334 19.9492 147.49 19.9427 147.627 19.9297C147.77 19.9102 147.891 19.8906 147.988 19.8711L147.998 21.9414C147.757 22.0195 147.497 22.0814 147.217 22.127C146.937 22.1725 146.628 22.1953 146.289 22.1953C145.671 22.1953 145.13 22.0944 144.668 21.8926C144.212 21.6842 143.861 21.3522 143.613 20.8965C143.366 20.4408 143.242 19.8418 143.242 19.0996V8.82617ZM148.77 16.8242V16.6191C148.77 15.8444 148.88 15.1315 149.102 14.4805C149.323 13.8229 149.645 13.2533 150.068 12.7715C150.492 12.2897 151.012 11.9154 151.631 11.6484C152.249 11.375 152.959 11.2383 153.76 11.2383C154.561 11.2383 155.273 11.375 155.898 11.6484C156.523 11.9154 157.048 12.2897 157.471 12.7715C157.9 13.2533 158.226 13.8229 158.447 14.4805C158.669 15.1315 158.779 15.8444 158.779 16.6191V16.8242C158.779 17.5924 158.669 18.3053 158.447 18.9629C158.226 19.6139 157.9 20.1836 157.471 20.6719C157.048 21.1536 156.527 21.528 155.908 21.7949C155.29 22.0618 154.58 22.1953 153.779 22.1953C152.979 22.1953 152.266 22.0618 151.641 21.7949C151.022 21.528 150.498 21.1536 150.068 20.6719C149.645 20.1836 149.323 19.6139 149.102 18.9629C148.88 18.3053 148.77 17.5924 148.77 16.8242ZM151.582 16.6191V16.8242C151.582 17.2669 151.621 17.6803 151.699 18.0645C151.777 18.4486 151.901 18.7871 152.07 19.0801C152.246 19.3665 152.474 19.5911 152.754 19.7539C153.034 19.9167 153.376 19.998 153.779 19.998C154.17 19.998 154.505 19.9167 154.785 19.7539C155.065 19.5911 155.29 19.3665 155.459 19.0801C155.628 18.7871 155.752 18.4486 155.83 18.0645C155.915 17.6803 155.957 17.2669 155.957 16.8242V16.6191C155.957 16.1895 155.915 15.7858 155.83 15.4082C155.752 15.0241 155.625 14.6855 155.449 14.3926C155.28 14.0931 155.055 13.8587 154.775 13.6895C154.495 13.5202 154.157 13.4355 153.76 13.4355C153.363 13.4355 153.024 13.5202 152.744 13.6895C152.471 13.8587 152.246 14.0931 152.07 14.3926C151.901 14.6855 151.777 15.0241 151.699 15.4082C151.621 15.7858 151.582 16.1895 151.582 16.6191ZM163.32 13.7383V22H160.508V11.4336H163.154L163.32 13.7383ZM166.504 11.3652L166.455 13.9727C166.318 13.9531 166.152 13.9368 165.957 13.9238C165.768 13.9043 165.596 13.8945 165.439 13.8945C165.042 13.8945 164.697 13.9466 164.404 14.0508C164.118 14.1484 163.877 14.2949 163.682 14.4902C163.493 14.6855 163.35 14.9232 163.252 15.2031C163.161 15.4831 163.109 15.8021 163.096 16.1602L162.529 15.9844C162.529 15.3008 162.598 14.6725 162.734 14.0996C162.871 13.5202 163.07 13.0156 163.33 12.5859C163.597 12.1562 163.923 11.8242 164.307 11.5898C164.691 11.3555 165.13 11.2383 165.625 11.2383C165.781 11.2383 165.941 11.2513 166.104 11.2773C166.266 11.2969 166.4 11.3262 166.504 11.3652Z" fill="#4D5E80"/>
</svg>
